<?xml version="1.0" encoding="UTF-8" standalone="no"?>
<svg width="100" height="100" viewBox="0 0 100 100" xmlns="http://www.w3.org/2000/svg">
  <g fill="#FFFFFF">
    <!-- Lettre S stylisée -->
    <path d="M35,20 C25,20 20,25 20,30 C20,40 40,35 40,45 C40,50 35,55 25,55 L25,45 C30,45 30,40 30,40 C30,30 10,35 10,25 C10,15 20,10 35,10 L35,20 Z" />
    <!-- Lettre E stylisée -->
    <path d="M65,10 L90,10 L90,20 L75,20 L75,30 L85,30 L85,40 L75,40 L75,50 L90,50 L90,60 L65,60 L65,10 Z" />
    <!-- Ligne horizontale -->
    <rect x="10" y="70" width="80" height="2" />
    <!-- Petit cercle -->
    <circle cx="50" cy="80" r="10" />
  </g>
</svg>
