<svg xmlns="http://www.w3.org/2000/svg" xmlns:xlink="http://www.w3.org/1999/xlink" width="500" zoomAndPan="magnify" viewBox="0 0 375 374.999991" height="500" preserveAspectRatio="xMidYMid meet" version="1.2"><defs><clipPath id="5c447ec8bf"><path d="M 76.777344 73 L 298.027344 73 L 298.027344 302 L 76.777344 302 Z M 76.777344 73 "/></clipPath><clipPath id="86a4d7c7cc"><path d="M 220.3125 255 L 254.8125 255 L 254.8125 293.242188 L 220.3125 293.242188 Z M 220.3125 255 "/></clipPath></defs><g id="76c7a46d2c"><g style="fill:#000000;fill-opacity:1;"><g transform="translate(129.615895, 205.698738)"><path style="stroke:none" d="M 3.328125 -42.1875 C 3.328125 -44.78125 4.09375 -47.164062 5.625 -49.34375 C 7.164062 -51.53125 9.414062 -53.289062 12.375 -54.625 C 15.34375 -55.957031 18.953125 -56.625 23.203125 -56.625 C 26.609375 -56.625 29.5625 -56.382812 32.0625 -55.90625 C 34.5625 -55.425781 36.882812 -54.816406 39.03125 -54.078125 L 39.03125 -46.640625 L 38.46875 -46.640625 C 38.46875 -46.640625 38.316406 -46.953125 38.015625 -47.578125 C 37.722656 -48.203125 37.222656 -48.976562 36.515625 -49.90625 C 35.816406 -50.832031 34.882812 -51.757812 33.71875 -52.6875 C 32.5625 -53.613281 31.113281 -54.390625 29.375 -55.015625 C 27.632812 -55.640625 25.578125 -55.953125 23.203125 -55.953125 C 19.765625 -55.953125 16.847656 -55.34375 14.453125 -54.125 C 12.066406 -52.90625 10.265625 -51.351562 9.046875 -49.46875 C 7.828125 -47.582031 7.21875 -45.601562 7.21875 -43.53125 C 7.21875 -41.632812 7.707031 -40.019531 8.6875 -38.6875 C 9.664062 -37.363281 11 -36.21875 12.6875 -35.25 C 14.375 -34.289062 16.25 -33.441406 18.3125 -32.703125 C 20.382812 -31.960938 22.53125 -31.222656 24.75 -30.484375 C 26.976562 -29.742188 29.128906 -28.9375 31.203125 -28.0625 C 33.273438 -27.195312 35.148438 -26.148438 36.828125 -24.921875 C 38.515625 -23.703125 39.847656 -22.234375 40.828125 -20.515625 C 41.804688 -18.796875 42.296875 -16.710938 42.296875 -14.265625 C 42.296875 -12.335938 41.816406 -10.457031 40.859375 -8.625 C 39.898438 -6.800781 38.507812 -5.15625 36.6875 -3.6875 C 34.875 -2.226562 32.691406 -1.0625 30.140625 -0.1875 C 27.585938 0.675781 24.703125 1.109375 21.484375 1.109375 C 19.046875 1.109375 16.710938 0.753906 14.484375 0.046875 C 12.265625 -0.648438 10.226562 -1.523438 8.375 -2.578125 C 6.53125 -3.628906 4.921875 -4.65625 3.546875 -5.65625 L 3.546875 -13.109375 L 4.109375 -13.109375 C 4.109375 -13.109375 4.394531 -12.660156 4.96875 -11.765625 C 5.539062 -10.878906 6.390625 -9.78125 7.515625 -8.46875 C 8.648438 -7.15625 10.039062 -5.835938 11.6875 -4.515625 C 13.332031 -3.203125 15.238281 -2.101562 17.40625 -1.21875 C 19.570312 -0.332031 21.96875 0.109375 24.59375 0.109375 C 26.625 0.109375 28.519531 -0.222656 30.28125 -0.890625 C 32.039062 -1.554688 33.578125 -2.460938 34.890625 -3.609375 C 36.203125 -4.753906 37.226562 -6.046875 37.96875 -7.484375 C 38.707031 -8.929688 39.078125 -10.429688 39.078125 -11.984375 C 39.078125 -14.054688 38.578125 -15.84375 37.578125 -17.34375 C 36.578125 -18.84375 35.226562 -20.128906 33.53125 -21.203125 C 31.832031 -22.273438 29.914062 -23.238281 27.78125 -24.09375 C 25.65625 -24.945312 23.460938 -25.757812 21.203125 -26.53125 C 18.953125 -27.3125 16.757812 -28.144531 14.625 -29.03125 C 12.5 -29.914062 10.582031 -30.941406 8.875 -32.109375 C 7.175781 -33.273438 5.828125 -34.679688 4.828125 -36.328125 C 3.828125 -37.984375 3.328125 -39.9375 3.328125 -42.1875 Z M 3.328125 -42.1875 "/></g></g><g style="fill:#000000;fill-opacity:1;"><g transform="translate(164.144201, 205.698738)"><path style="stroke:none" d="M 35.921875 -50.234375 C 35.921875 -51.273438 35.753906 -52.300781 35.421875 -53.3125 C 35.085938 -54.332031 34.601562 -55.066406 33.96875 -55.515625 L 39.46875 -55.515625 C 39.988281 -55.035156 40.394531 -54.3125 40.6875 -53.34375 C 40.988281 -52.382812 41.140625 -51.390625 41.140625 -50.359375 C 41.140625 -47.910156 40.65625 -45.75 39.6875 -43.875 C 38.726562 -42.007812 37.441406 -40.382812 35.828125 -39 C 34.222656 -37.613281 32.46875 -36.410156 30.5625 -35.390625 C 28.65625 -34.367188 26.75 -33.488281 24.84375 -32.75 C 22.9375 -32.007812 21.175781 -31.363281 19.5625 -30.8125 C 17.957031 -30.257812 16.671875 -29.738281 15.703125 -29.25 C 14.742188 -28.769531 14.265625 -28.269531 14.265625 -27.75 C 14.265625 -27.125 14.613281 -26.632812 15.3125 -26.28125 C 16.019531 -25.9375 16.957031 -25.601562 18.125 -25.28125 C 19.289062 -24.96875 20.546875 -24.5625 21.890625 -24.0625 C 23.242188 -23.5625 24.597656 -22.847656 25.953125 -21.921875 C 27.304688 -21.003906 28.519531 -19.75 29.59375 -18.15625 C 30.882812 -16.226562 32.1875 -14.226562 33.5 -12.15625 C 34.8125 -10.082031 36.160156 -8.175781 37.546875 -6.4375 C 38.941406 -4.695312 40.359375 -3.28125 41.796875 -2.1875 C 43.242188 -1.101562 44.765625 -0.5625 46.359375 -0.5625 L 46.359375 0 L 37.859375 0 C 37.234375 0 36.613281 -0.253906 36 -0.765625 C 35.382812 -1.285156 34.632812 -2.164062 33.75 -3.40625 C 32.863281 -4.65625 31.722656 -6.351562 30.328125 -8.5 C 28.941406 -10.644531 27.160156 -13.363281 24.984375 -16.65625 C 23.765625 -18.507812 22.585938 -19.976562 21.453125 -21.0625 C 20.328125 -22.15625 19.289062 -23.015625 18.34375 -23.640625 C 17.40625 -24.273438 16.59375 -24.773438 15.90625 -25.140625 C 15.21875 -25.515625 14.679688 -25.882812 14.296875 -26.25 C 13.910156 -26.625 13.71875 -27.125 13.71875 -27.75 C 13.71875 -28.457031 14.113281 -29.125 14.90625 -29.75 C 15.695312 -30.382812 16.757812 -31.023438 18.09375 -31.671875 C 19.425781 -32.316406 20.878906 -33.023438 22.453125 -33.796875 C 24.023438 -34.578125 25.597656 -35.457031 27.171875 -36.4375 C 28.742188 -37.425781 30.195312 -38.566406 31.53125 -39.859375 C 32.863281 -41.148438 33.925781 -42.644531 34.71875 -44.34375 C 35.519531 -46.050781 35.921875 -48.015625 35.921875 -50.234375 Z M 1.671875 0 L 1.671875 -0.5625 C 3.253906 -0.5625 4.40625 -1.039062 5.125 -2 C 5.851562 -2.957031 6.304688 -4.53125 6.484375 -6.71875 C 6.671875 -8.90625 6.765625 -11.8125 6.765625 -15.4375 L 6.765625 -40.078125 C 6.765625 -43.742188 6.671875 -46.660156 6.484375 -48.828125 C 6.304688 -50.992188 5.851562 -52.554688 5.125 -53.515625 C 4.40625 -54.472656 3.253906 -54.953125 1.671875 -54.953125 L 1.671875 -55.515625 L 16.59375 -55.515625 L 16.59375 -54.953125 C 15.007812 -54.953125 13.851562 -54.472656 13.125 -53.515625 C 12.40625 -52.554688 11.953125 -50.992188 11.765625 -48.828125 C 11.578125 -46.660156 11.484375 -43.742188 11.484375 -40.078125 L 11.484375 -15.4375 C 11.484375 -11.8125 11.578125 -8.90625 11.765625 -6.71875 C 11.953125 -4.53125 12.40625 -2.957031 13.125 -2 C 13.851562 -1.039062 15.007812 -0.5625 16.59375 -0.5625 L 16.59375 0 Z M 1.671875 0 "/></g></g><g style="fill:#000000;fill-opacity:1;"><g transform="translate(199.949313, 205.698738)"><path style="stroke:none" d="M 0 -54.953125 L 0 -55.515625 L 15.4375 -55.515625 L 15.4375 -54.953125 L 14.21875 -54.953125 C 13.4375 -54.953125 12.738281 -54.738281 12.125 -54.3125 C 11.519531 -53.894531 11.21875 -53.128906 11.21875 -52.015625 C 11.21875 -51.390625 11.46875 -50.4375 11.96875 -49.15625 C 12.46875 -47.882812 13.140625 -46.414062 13.984375 -44.75 C 14.835938 -43.082031 15.769531 -41.3125 16.78125 -39.4375 C 17.800781 -37.570312 18.820312 -35.722656 19.84375 -33.890625 C 20.863281 -32.054688 21.828125 -30.332031 22.734375 -28.71875 C 23.640625 -27.113281 24.367188 -25.757812 24.921875 -24.65625 C 25.703125 -26.09375 26.644531 -27.847656 27.75 -29.921875 C 28.863281 -31.992188 30.007812 -34.175781 31.1875 -36.46875 C 32.375 -38.769531 33.492188 -40.992188 34.546875 -43.140625 C 35.609375 -45.285156 36.460938 -47.179688 37.109375 -48.828125 C 37.753906 -50.472656 38.078125 -51.664062 38.078125 -52.40625 C 38.078125 -53.40625 37.753906 -54.078125 37.109375 -54.421875 C 36.460938 -54.773438 35.75 -54.953125 34.96875 -54.953125 L 33.53125 -54.953125 L 33.53125 -55.515625 L 45.40625 -55.515625 L 45.40625 -54.953125 C 44 -54.953125 42.820312 -54.472656 41.875 -53.515625 C 40.9375 -52.554688 39.945312 -51.054688 38.90625 -49.015625 C 37.875 -46.984375 36.507812 -44.359375 34.8125 -41.140625 C 33.664062 -38.992188 32.460938 -36.789062 31.203125 -34.53125 C 29.941406 -32.269531 28.765625 -30.164062 27.671875 -28.21875 C 26.578125 -26.28125 25.71875 -24.703125 25.09375 -23.484375 L 25.09375 -15.4375 C 25.09375 -11.8125 25.179688 -8.90625 25.359375 -6.71875 C 25.546875 -4.53125 26 -2.957031 26.71875 -2 C 27.445312 -1.039062 28.609375 -0.5625 30.203125 -0.5625 L 30.203125 0 L 15.21875 0 L 15.21875 -0.5625 C 16.800781 -0.5625 17.953125 -1.039062 18.671875 -2 C 19.398438 -2.957031 19.851562 -4.53125 20.03125 -6.71875 C 20.21875 -8.90625 20.3125 -11.8125 20.3125 -15.4375 L 20.3125 -23.484375 C 19.6875 -24.703125 18.828125 -26.28125 17.734375 -28.21875 C 16.640625 -30.164062 15.460938 -32.269531 14.203125 -34.53125 C 12.953125 -36.789062 11.753906 -38.992188 10.609375 -41.140625 C 8.941406 -44.359375 7.578125 -46.984375 6.515625 -49.015625 C 5.460938 -51.054688 4.460938 -52.554688 3.515625 -53.515625 C 2.578125 -54.472656 1.40625 -54.953125 0 -54.953125 Z M 0 -54.953125 "/></g></g><g style="fill:#000000;fill-opacity:1;"><g transform="translate(116.863137, 227.941963)"><path style="stroke:none" d="M 13.109375 -1.375 L 13.109375 0 L 2.453125 0 L 2.453125 -15.078125 L 12.796875 -15.078125 L 12.796875 -13.6875 L 4.046875 -13.6875 L 4.046875 -8.328125 L 11.84375 -8.328125 L 11.84375 -6.96875 L 4.046875 -6.96875 L 4.046875 -1.375 Z M 13.109375 -1.375 "/></g></g><g style="fill:#000000;fill-opacity:1;"><g transform="translate(148.159499, 227.941963)"><path style="stroke:none" d="M 14.984375 -15.078125 L 8.3125 0 L 6.734375 0 L 0.0625 -15.078125 L 1.78125 -15.078125 L 7.5625 -1.984375 L 13.375 -15.078125 Z M 14.984375 -15.078125 "/></g></g><g style="fill:#000000;fill-opacity:1;"><g transform="translate(180.079816, 227.941963)"><path style="stroke:none" d="M 13.109375 -1.375 L 13.109375 0 L 2.453125 0 L 2.453125 -15.078125 L 12.796875 -15.078125 L 12.796875 -13.6875 L 4.046875 -13.6875 L 4.046875 -8.328125 L 11.84375 -8.328125 L 11.84375 -6.96875 L 4.046875 -6.96875 L 4.046875 -1.375 Z M 13.109375 -1.375 "/></g></g><g style="fill:#000000;fill-opacity:1;"><g transform="translate(211.376177, 227.941963)"><path style="stroke:none" d="M 15.046875 -15.078125 L 15.046875 0 L 13.734375 0 L 4.046875 -12.234375 L 4.046875 0 L 2.453125 0 L 2.453125 -15.078125 L 3.765625 -15.078125 L 13.484375 -2.84375 L 13.484375 -15.078125 Z M 15.046875 -15.078125 "/></g></g><g style="fill:#000000;fill-opacity:1;"><g transform="translate(245.770787, 227.941963)"><path style="stroke:none" d="M 5.390625 -13.6875 L 0.09375 -13.6875 L 0.09375 -15.078125 L 12.265625 -15.078125 L 12.265625 -13.6875 L 6.96875 -13.6875 L 6.96875 0 L 5.390625 0 Z M 5.390625 -13.6875 "/></g></g><g clip-rule="nonzero" clip-path="url(#5c447ec8bf)"><path style=" stroke:none;fill-rule:evenodd;fill:#000000;fill-opacity:1;" d="M 159.589844 76.691406 C 161.382812 76.238281 163.183594 75.835938 164.996094 75.472656 C 166.808594 75.109375 168.628906 74.792969 170.453125 74.519531 C 172.28125 74.246094 174.113281 74.015625 175.953125 73.832031 C 177.792969 73.648438 179.632812 73.507812 181.480469 73.414062 C 183.324219 73.316406 185.171875 73.265625 187.019531 73.261719 C 188.867188 73.257812 190.714844 73.296875 192.558594 73.378906 C 194.40625 73.464844 196.246094 73.59375 198.085938 73.769531 C 199.925781 73.941406 201.761719 74.160156 203.589844 74.425781 C 205.417969 74.6875 207.238281 74.996094 209.054688 75.347656 C 210.867188 75.699219 212.671875 76.09375 214.46875 76.53125 C 216.261719 76.972656 218.046875 77.453125 219.816406 77.980469 C 221.585938 78.507812 223.34375 79.074219 225.089844 79.6875 C 226.832031 80.296875 228.558594 80.949219 230.273438 81.644531 C 231.984375 82.339844 233.679688 83.078125 235.355469 83.855469 C 237.03125 84.632812 238.6875 85.449219 240.324219 86.308594 C 241.960938 87.167969 243.574219 88.0625 245.167969 89 C 246.761719 89.9375 248.328125 90.910156 249.875 91.925781 C 251.421875 92.9375 252.941406 93.988281 254.433594 95.074219 C 255.929688 96.160156 257.398438 97.28125 258.835938 98.441406 C 260.277344 99.597656 261.6875 100.789062 263.070312 102.015625 C 264.453125 103.242188 265.804688 104.503906 267.125 105.796875 C 268.445312 107.085938 269.734375 108.410156 270.988281 109.765625 C 272.246094 111.121094 273.46875 112.503906 274.65625 113.917969 C 275.847656 115.332031 277 116.773438 278.121094 118.246094 C 279.238281 119.714844 280.324219 121.210938 281.371094 122.734375 C 282.414062 124.257812 283.425781 125.804688 284.394531 127.378906 C 285.367188 128.949219 286.300781 130.542969 287.191406 132.160156 C 288.085938 133.777344 288.941406 135.417969 289.753906 137.074219 C 290.570312 138.734375 291.34375 140.410156 292.074219 142.105469 C 292.808594 143.804688 293.5 145.515625 294.148438 147.246094 C 294.796875 148.976562 295.40625 150.722656 295.96875 152.480469 C 296.535156 154.238281 297.054688 156.011719 297.535156 157.796875 C 297.710938 158.453125 297.886719 159.125 298.054688 159.8125 L 296.308594 160.417969 C 296.132812 159.703125 295.949219 158.988281 295.757812 158.269531 C 295.28125 156.5 294.765625 154.746094 294.207031 153 C 293.644531 151.257812 293.042969 149.527344 292.398438 147.816406 C 291.753906 146.101562 291.070312 144.402344 290.339844 142.722656 C 289.613281 141.042969 288.84375 139.378906 288.035156 137.738281 C 287.226562 136.09375 286.378906 134.472656 285.488281 132.871094 C 284.601562 131.269531 283.675781 129.691406 282.707031 128.132812 C 281.742188 126.578125 280.738281 125.046875 279.699219 123.539062 C 278.660156 122.03125 277.582031 120.550781 276.46875 119.097656 C 275.355469 117.644531 274.207031 116.21875 273.023438 114.820312 C 271.839844 113.421875 270.625 112.054688 269.375 110.714844 C 268.125 109.378906 266.84375 108.070312 265.527344 106.792969 C 264.214844 105.519531 262.871094 104.277344 261.496094 103.066406 C 260.121094 101.855469 258.714844 100.679688 257.285156 99.539062 C 255.851562 98.398438 254.390625 97.292969 252.90625 96.222656 C 251.417969 95.15625 249.90625 94.121094 248.371094 93.125 C 246.832031 92.132812 245.273438 91.175781 243.6875 90.253906 C 242.105469 89.335938 240.5 88.457031 238.871094 87.613281 C 237.242188 86.773438 235.597656 85.972656 233.929688 85.214844 C 232.265625 84.453125 230.582031 83.734375 228.878906 83.058594 C 227.179688 82.382812 225.460938 81.746094 223.730469 81.152344 C 221.996094 80.558594 220.25 80.007812 218.492188 79.5 C 216.730469 78.992188 214.960938 78.527344 213.179688 78.105469 C 211.394531 77.6875 209.605469 77.308594 207.804688 76.976562 C 206.003906 76.640625 204.195312 76.351562 202.378906 76.105469 C 200.566406 75.863281 198.746094 75.660156 196.921875 75.507812 C 195.09375 75.351562 193.269531 75.238281 191.4375 75.171875 C 189.609375 75.105469 187.777344 75.085938 185.945312 75.109375 C 184.113281 75.132812 182.285156 75.199219 180.457031 75.3125 C 178.628906 75.425781 176.804688 75.582031 174.984375 75.785156 C 173.164062 75.988281 171.351562 76.234375 169.542969 76.523438 C 167.734375 76.816406 165.933594 77.152344 164.144531 77.53125 C 162.351562 77.910156 160.570312 78.332031 158.800781 78.796875 C 159.074219 78.101562 159.34375 77.40625 159.589844 76.695312 Z M 78.523438 214.601562 C 78.671875 215.1875 78.816406 215.769531 78.976562 216.359375 C 79.453125 218.132812 79.96875 219.894531 80.53125 221.640625 C 81.09375 223.386719 81.699219 225.121094 82.34375 226.839844 C 82.992188 228.558594 83.679688 230.257812 84.410156 231.945312 C 85.140625 233.628906 85.910156 235.292969 86.722656 236.941406 C 87.535156 238.585938 88.386719 240.214844 89.277344 241.816406 C 90.171875 243.421875 91.101562 245.003906 92.070312 246.5625 C 93.039062 248.125 94.046875 249.65625 95.089844 251.167969 C 96.136719 252.675781 97.21875 254.160156 98.335938 255.617188 C 99.453125 257.074219 100.605469 258.503906 101.792969 259.902344 C 102.980469 261.304688 104.199219 262.671875 105.457031 264.011719 C 106.710938 265.351562 107.996094 266.660156 109.316406 267.9375 C 110.636719 269.214844 111.984375 270.460938 113.367188 271.671875 C 114.746094 272.882812 116.15625 274.058594 117.59375 275.199219 C 119.03125 276.339844 120.496094 277.445312 121.988281 278.515625 C 123.480469 279.585938 124.996094 280.617188 126.539062 281.613281 C 128.082031 282.609375 129.648438 283.566406 131.238281 284.484375 C 132.828125 285.402344 134.441406 286.28125 136.074219 287.121094 C 137.707031 287.960938 139.359375 288.757812 141.03125 289.515625 C 142.703125 290.273438 144.390625 290.992188 146.101562 291.667969 C 147.808594 292.34375 149.53125 292.976562 151.269531 293.566406 C 153.007812 294.15625 154.757812 294.703125 156.523438 295.207031 C 158.289062 295.714844 160.066406 296.175781 161.851562 296.59375 C 163.640625 297.007812 165.4375 297.382812 167.246094 297.710938 C 169.050781 298.042969 170.863281 298.324219 172.683594 298.566406 C 174.503906 298.808594 176.328125 299.003906 178.160156 299.152344 C 179.988281 299.304688 181.820312 299.410156 183.65625 299.46875 C 185.492188 299.53125 187.328125 299.546875 189.164062 299.515625 C 190.996094 299.488281 192.832031 299.414062 194.664062 299.292969 C 196.496094 299.175781 198.324219 299.011719 200.148438 298.800781 C 201.972656 298.59375 203.789062 298.339844 205.601562 298.042969 C 207.414062 297.742188 209.214844 297.402344 211.011719 297.015625 C 212.804688 296.628906 214.589844 296.195312 216.363281 295.722656 C 216.078125 296.417969 215.800781 297.121094 215.542969 297.832031 C 213.75 298.289062 211.945312 298.703125 210.128906 299.070312 C 208.316406 299.441406 206.492188 299.765625 204.660156 300.046875 C 202.832031 300.324219 200.996094 300.5625 199.152344 300.753906 C 197.308594 300.941406 195.464844 301.089844 193.613281 301.191406 C 191.765625 301.292969 189.914062 301.347656 188.0625 301.359375 C 186.210938 301.371094 184.359375 301.335938 182.511719 301.257812 C 180.660156 301.175781 178.8125 301.054688 176.96875 300.882812 C 175.125 300.714844 173.285156 300.5 171.449219 300.242188 C 169.617188 299.984375 167.789062 299.679688 165.972656 299.332031 C 164.152344 298.984375 162.34375 298.59375 160.542969 298.15625 C 158.742188 297.722656 156.953125 297.242188 155.179688 296.71875 C 153.402344 296.195312 151.636719 295.632812 149.890625 295.023438 C 148.140625 294.414062 146.40625 293.761719 144.691406 293.070312 C 142.972656 292.375 141.273438 291.640625 139.589844 290.867188 C 137.910156 290.089844 136.246094 289.273438 134.605469 288.417969 C 132.964844 287.558594 131.34375 286.664062 129.746094 285.726562 C 128.148438 284.792969 126.574219 283.820312 125.023438 282.804688 C 123.472656 281.792969 121.945312 280.742188 120.445312 279.65625 C 118.945312 278.570312 117.472656 277.449219 116.03125 276.289062 C 114.585938 275.132812 113.167969 273.9375 111.78125 272.710938 C 110.394531 271.484375 109.039062 270.222656 107.714844 268.929688 C 106.386719 267.636719 105.09375 266.3125 103.832031 264.957031 C 102.570312 263.597656 101.34375 262.210938 100.152344 260.796875 C 98.957031 259.378906 97.800781 257.9375 96.675781 256.464844 C 95.554688 254.992188 94.464844 253.492188 93.417969 251.964844 C 92.367188 250.441406 91.355469 248.890625 90.378906 247.316406 C 89.40625 245.742188 88.46875 244.144531 87.570312 242.523438 C 86.675781 240.902344 85.820312 239.261719 85 237.597656 C 84.183594 235.9375 83.410156 234.257812 82.671875 232.554688 C 81.9375 230.855469 81.246094 229.140625 80.59375 227.40625 C 79.941406 225.671875 79.332031 223.925781 78.765625 222.160156 C 78.203125 220.398438 77.679688 218.621094 77.199219 216.832031 C 77.054688 216.292969 76.917969 215.75 76.777344 215.210938 Z M 78.523438 214.601562 "/></g><g clip-rule="nonzero" clip-path="url(#86a4d7c7cc)"><path style=" stroke:none;fill-rule:nonzero;fill:#000000;fill-opacity:1;" d="M 236.71875 274.945312 C 236.4375 275.3125 236.167969 275.664062 235.890625 276.03125 C 235.976562 276.089844 236.0625 276.082031 236.144531 276.089844 C 237.429688 276.191406 238.679688 275.972656 239.925781 275.710938 C 240.609375 275.566406 241.28125 275.378906 241.945312 275.160156 C 242.101562 275.109375 242.226562 275.117188 242.292969 275.285156 C 242.347656 275.429688 242.277344 275.554688 242.09375 275.617188 C 240.390625 276.160156 238.660156 276.566406 236.863281 276.589844 C 235.648438 276.605469 234.476562 276.335938 233.328125 275.953125 C 232.476562 275.671875 231.632812 275.359375 230.746094 275.191406 C 230.527344 275.148438 230.304688 275.125 230.082031 275.128906 C 229.507812 275.136719 229.097656 275.699219 229.265625 276.25 C 229.375 276.621094 229.628906 276.882812 229.921875 277.121094 C 230.425781 277.53125 231 277.824219 231.597656 278.0625 C 232.636719 278.472656 233.640625 278.953125 234.605469 279.507812 C 235.585938 280.074219 236.613281 280.527344 237.710938 280.808594 C 238.347656 280.972656 238.839844 281.324219 239.167969 281.898438 C 239.714844 282.863281 240.484375 283.664062 241.207031 284.496094 C 241.261719 284.558594 241.402344 284.636719 241.320312 284.714844 C 241.242188 284.792969 241.160156 284.660156 241.097656 284.609375 C 240.210938 283.898438 239.425781 283.101562 238.847656 282.117188 C 238.5625 281.628906 238.132812 281.335938 237.578125 281.214844 C 236.746094 281.027344 235.953125 280.746094 235.203125 280.34375 C 235.15625 280.320312 235.101562 280.285156 235.054688 280.292969 C 234.574219 280.351562 234.085938 280.300781 233.605469 280.363281 C 233.203125 280.417969 232.941406 280.636719 232.789062 280.996094 C 232.542969 281.582031 232.402344 282.199219 232.265625 282.816406 C 232.054688 283.785156 231.867188 284.761719 231.652344 285.730469 C 231.484375 286.476562 231.144531 287.121094 230.4375 287.511719 C 230.371094 287.550781 230.34375 287.597656 230.347656 287.671875 C 230.355469 288.019531 230.363281 288.367188 230.363281 288.714844 C 230.363281 288.886719 230.480469 288.828125 230.554688 288.816406 C 231.640625 288.691406 232.480469 287.917969 232.714844 286.859375 C 232.8125 286.417969 232.722656 285.980469 232.757812 285.546875 C 232.796875 285.105469 232.585938 284.738281 232.53125 284.332031 C 232.511719 284.183594 232.429688 283.992188 232.65625 283.953125 C 232.871094 283.914062 232.855469 284.125 232.898438 284.253906 C 232.941406 284.386719 232.96875 284.523438 233.007812 284.675781 C 233.328125 284.402344 233.628906 284.140625 233.929688 283.882812 C 234.402344 283.476562 234.867188 283.058594 235.496094 282.890625 C 235.628906 282.855469 235.523438 282.789062 235.496094 282.746094 C 235.285156 282.449219 235.167969 282.121094 235.132812 281.761719 C 235.128906 281.714844 235.128906 281.667969 235.128906 281.621094 C 235.121094 281.523438 235.152344 281.441406 235.257812 281.429688 C 235.367188 281.417969 235.402344 281.496094 235.421875 281.59375 C 235.507812 282.074219 235.71875 282.488281 236.074219 282.828125 C 236.117188 282.871094 236.15625 282.910156 236.21875 282.933594 C 236.910156 283.179688 237.539062 283.558594 238.230469 283.804688 C 238.558594 283.921875 238.78125 284.179688 238.976562 284.457031 C 239.582031 285.316406 240.25 286.125 241.074219 286.792969 C 241.652344 287.265625 242.261719 287.6875 242.929688 288.027344 C 243.886719 288.511719 244.914062 288.609375 245.96875 288.589844 C 247.015625 288.570312 248.015625 288.304688 249.015625 288.042969 C 250.710938 287.601562 252.429688 287.542969 254.164062 287.683594 C 254.289062 287.695312 254.417969 287.699219 254.542969 287.71875 C 254.722656 287.753906 254.824219 287.910156 254.78125 288.074219 C 254.738281 288.25 254.613281 288.265625 254.453125 288.242188 C 252.8125 288.035156 251.171875 287.945312 249.527344 288.21875 C 248.976562 288.3125 248.449219 288.496094 247.917969 288.664062 C 245.457031 289.453125 243.15625 289.148438 241.054688 287.617188 C 240.011719 286.855469 239.152344 285.925781 238.429688 284.867188 C 238.238281 284.582031 238.003906 284.359375 237.699219 284.199219 C 237.21875 283.945312 236.734375 283.695312 236.257812 283.4375 C 235.875 283.234375 235.515625 283.269531 235.15625 283.503906 C 234.660156 283.828125 234.152344 284.128906 233.71875 284.53125 C 233.53125 284.707031 233.363281 284.898438 233.242188 285.125 C 233.152344 285.289062 233.109375 285.46875 233.105469 285.660156 C 233.089844 286.160156 233.105469 286.664062 233.011719 287.15625 C 232.804688 288.214844 232.019531 288.964844 230.902344 289.175781 C 230.695312 289.214844 230.488281 289.238281 230.28125 289.253906 C 230.015625 289.273438 229.953125 289.210938 229.953125 288.953125 C 229.953125 288.613281 229.949219 288.273438 229.957031 287.933594 C 229.960938 287.796875 229.9375 287.753906 229.792969 287.8125 C 229.5 287.933594 229.191406 288.007812 228.871094 287.988281 C 228.382812 287.964844 228.1875 287.726562 228.285156 287.253906 C 228.382812 286.777344 228.496094 286.304688 228.605469 285.832031 C 228.613281 285.785156 228.632812 285.742188 228.605469 285.667969 C 228.390625 285.949219 228.1875 286.214844 227.980469 286.484375 C 226.5 288.421875 225.019531 290.363281 223.535156 292.300781 C 223.398438 292.484375 223.261719 292.664062 223.117188 292.839844 C 223.035156 292.945312 222.929688 293.035156 222.8125 293.097656 C 222.628906 293.195312 222.453125 293.199219 222.28125 293.074219 C 222.109375 292.945312 222.054688 292.777344 222.097656 292.578125 C 222.152344 292.320312 222.296875 292.101562 222.453125 291.890625 C 223.363281 290.691406 224.214844 289.453125 225.09375 288.234375 C 226.460938 286.328125 227.820312 284.417969 229.1875 282.511719 C 229.234375 282.445312 229.28125 282.378906 229.296875 282.300781 C 229.449219 281.660156 229.644531 281.027344 229.855469 280.40625 C 229.863281 280.375 229.878906 280.34375 229.855469 280.300781 C 229.558594 280.492188 229.394531 280.78125 229.265625 281.089844 C 228.972656 281.789062 228.601562 282.445312 228.15625 283.058594 C 227.652344 283.753906 227.097656 284.40625 226.464844 284.992188 C 226.34375 285.105469 226.210938 285.210938 226.058594 285.28125 C 225.710938 285.4375 225.363281 285.332031 225.167969 285.011719 C 225.121094 284.9375 225.085938 284.859375 225.046875 284.78125 C 224.972656 284.78125 224.96875 284.847656 224.945312 284.886719 C 223.914062 286.714844 222.886719 288.539062 221.859375 290.367188 C 221.707031 290.640625 221.566406 290.921875 221.378906 291.171875 C 221.316406 291.253906 221.253906 291.332031 221.179688 291.402344 C 221.046875 291.53125 220.894531 291.648438 220.699219 291.566406 C 220.484375 291.480469 220.367188 291.300781 220.34375 291.070312 C 220.316406 290.855469 220.40625 290.664062 220.503906 290.480469 C 221.40625 288.816406 222.242188 287.117188 223.109375 285.429688 C 224.367188 282.984375 225.609375 280.539062 226.863281 278.089844 C 226.890625 278.03125 226.917969 277.972656 226.953125 277.898438 C 226.597656 277.957031 226.273438 277.960938 225.941406 277.859375 C 225.234375 277.644531 224.9375 276.964844 225.28125 276.320312 C 225.488281 275.933594 225.789062 275.609375 226.097656 275.304688 C 226.882812 274.527344 227.40625 273.566406 227.96875 272.636719 C 228.339844 272.03125 228.714844 271.433594 229.148438 270.871094 C 229.621094 270.257812 230.210938 269.835938 231.003906 269.746094 C 231.128906 269.734375 231.183594 269.664062 231.234375 269.5625 C 232.382812 267.3125 233.53125 265.058594 234.683594 262.808594 C 235.789062 260.65625 236.894531 258.5 237.996094 256.34375 C 238.144531 256.054688 238.269531 255.753906 238.40625 255.453125 C 238.539062 255.164062 238.769531 255.035156 239.082031 255.03125 C 239.417969 255.027344 239.734375 255.097656 240.03125 255.253906 C 240.464844 255.484375 240.648438 255.996094 240.46875 256.480469 C 240.332031 256.855469 240.144531 257.210938 239.9375 257.554688 C 238.78125 259.484375 237.75 261.484375 236.667969 263.457031 C 235.546875 265.492188 234.441406 267.53125 233.332031 269.570312 C 233.3125 269.605469 233.292969 269.636719 233.269531 269.683594 C 233.402344 269.683594 233.519531 269.683594 233.636719 269.683594 C 235.1875 269.675781 236.734375 269.671875 238.28125 269.671875 C 238.449219 269.671875 238.546875 269.617188 238.644531 269.480469 C 240.765625 266.5 242.898438 263.519531 245.023438 260.539062 C 245.160156 260.347656 245.285156 260.148438 245.410156 259.953125 C 245.550781 259.742188 245.753906 259.664062 246 259.671875 C 246.148438 259.675781 246.292969 259.710938 246.429688 259.761719 C 247.003906 259.964844 247.542969 260.410156 247.042969 261.253906 C 246.703125 261.824219 246.269531 262.328125 245.871094 262.855469 C 244.046875 265.273438 242.214844 267.6875 240.386719 270.101562 C 240.332031 270.171875 240.242188 270.230469 240.398438 270.304688 C 241.417969 270.808594 242.257812 271.546875 243.0625 272.324219 C 244.679688 273.882812 246.292969 275.445312 247.914062 277 C 248.21875 277.292969 248.542969 277.5625 248.859375 277.84375 C 249.316406 278.25 249.867188 278.417969 250.457031 278.488281 C 251.171875 278.574219 251.886719 278.640625 252.601562 278.710938 C 252.910156 278.742188 253.21875 278.75 253.527344 278.699219 C 253.601562 278.6875 253.675781 278.6875 253.75 278.6875 C 253.886719 278.683594 253.984375 278.746094 254.035156 278.871094 C 254.085938 279.003906 254.070312 279.136719 253.980469 279.25 C 253.902344 279.351562 253.792969 279.386719 253.660156 279.347656 C 252.859375 279.101562 252.027344 279.101562 251.203125 279.054688 C 250.761719 279.027344 250.320312 278.980469 249.886719 278.875 C 249.300781 278.738281 248.8125 278.433594 248.382812 278.019531 C 246.484375 276.195312 244.554688 274.40625 242.683594 272.550781 C 241.941406 271.8125 241.144531 271.136719 240.214844 270.628906 C 240.089844 270.5625 240.03125 270.566406 239.941406 270.683594 C 238.96875 271.976562 237.992188 273.265625 237.007812 274.550781 C 236.902344 274.6875 236.902344 274.777344 237.007812 274.90625 C 237.191406 275.140625 237.375 275.367188 237.621094 275.539062 C 237.71875 275.609375 237.8125 275.699219 237.710938 275.820312 C 237.613281 275.945312 237.507812 275.863281 237.414062 275.792969 C 237.125 275.570312 236.902344 275.289062 236.71875 274.945312 Z M 239.199219 255.464844 C 238.9375 255.40625 238.828125 255.558594 238.75 255.765625 C 238.71875 255.851562 238.671875 255.9375 238.632812 256.019531 C 237.503906 258.207031 236.378906 260.394531 235.253906 262.582031 C 233.8125 265.386719 232.367188 268.195312 230.925781 271 C 229.152344 274.460938 227.371094 277.917969 225.597656 281.378906 C 224.035156 284.414062 222.476562 287.449219 220.914062 290.484375 C 220.851562 290.609375 220.769531 290.722656 220.703125 290.847656 C 220.644531 290.957031 220.636719 291.078125 220.734375 291.160156 C 220.832031 291.242188 220.921875 291.15625 221.003906 291.097656 C 221.085938 291.035156 221.148438 290.957031 221.199219 290.871094 C 221.378906 290.582031 221.5625 290.296875 221.726562 289.996094 C 222.828125 287.957031 223.980469 285.945312 225.125 283.933594 C 226.394531 281.699219 227.671875 279.46875 228.949219 277.242188 C 229.058594 277.054688 229.078125 276.925781 228.949219 276.730469 C 228.425781 275.910156 228.976562 274.671875 229.9375 274.65625 C 230.039062 274.65625 230.074219 274.601562 230.117188 274.527344 C 230.472656 273.855469 230.832031 273.183594 231.195312 272.515625 C 233.351562 268.503906 235.570312 264.53125 237.769531 260.546875 C 238.449219 259.3125 239.082031 258.054688 239.855469 256.875 C 239.964844 256.710938 240.046875 256.535156 240.097656 256.347656 C 240.207031 255.945312 240.003906 255.605469 239.597656 255.519531 C 239.464844 255.492188 239.332031 255.484375 239.199219 255.464844 Z M 234.460938 275.792969 C 234.746094 275.855469 234.988281 275.90625 235.230469 275.960938 C 235.335938 275.984375 235.402344 275.953125 235.46875 275.867188 C 236.101562 275.03125 236.738281 274.195312 237.375 273.363281 C 239.679688 270.335938 241.984375 267.308594 244.292969 264.285156 C 245.082031 263.257812 245.839844 262.207031 246.671875 261.207031 C 246.835938 261.011719 246.914062 260.785156 246.792969 260.539062 C 246.660156 260.261719 246.414062 260.15625 246.121094 260.089844 C 245.835938 260.03125 245.683594 260.171875 245.546875 260.375 C 245.492188 260.457031 245.425781 260.53125 245.371094 260.617188 C 244.554688 261.890625 243.648438 263.097656 242.769531 264.324219 C 240.328125 267.730469 237.878906 271.128906 235.402344 274.511719 C 235.09375 274.929688 234.789062 275.347656 234.464844 275.796875 Z M 238.230469 270.054688 C 238.117188 270.054688 238.066406 270.054688 238.011719 270.054688 C 236.84375 270.054688 235.671875 270.058594 234.5 270.054688 C 234.109375 270.054688 233.71875 270.074219 233.332031 270.015625 C 233.160156 269.988281 233.066406 270.03125 232.984375 270.1875 C 232.527344 271.046875 232.054688 271.898438 231.589844 272.753906 C 231.417969 273.0625 231.253906 273.371094 231.089844 273.675781 C 231.226562 273.582031 231.335938 273.46875 231.445312 273.351562 C 231.695312 273.082031 231.988281 272.933594 232.371094 272.960938 C 232.800781 272.992188 233.226562 273.050781 233.652344 273.109375 C 234.136719 273.175781 234.625 273.25 235.109375 273.320312 C 235.246094 273.339844 235.328125 273.339844 235.300781 273.148438 C 235.265625 272.910156 235.277344 272.667969 235.292969 272.429688 C 235.308594 272.140625 235.375 271.863281 235.472656 271.589844 C 235.503906 271.496094 235.566406 271.46875 235.65625 271.480469 C 235.753906 271.496094 235.738281 271.570312 235.738281 271.636719 C 235.730469 271.738281 235.726562 271.835938 235.714844 271.9375 C 235.664062 272.441406 235.703125 272.941406 235.789062 273.484375 C 236.609375 272.332031 237.402344 271.214844 238.226562 270.050781 Z M 231.902344 278.71875 C 231.875 278.699219 231.859375 278.683594 231.84375 278.679688 C 231.761719 278.644531 231.683594 278.613281 231.601562 278.578125 C 230.804688 278.246094 230.035156 277.871094 229.394531 277.277344 C 229.273438 277.167969 229.242188 277.195312 229.171875 277.320312 C 227.917969 279.570312 226.660156 281.816406 225.40625 284.066406 C 225.300781 284.257812 225.332031 284.617188 225.464844 284.710938 C 225.710938 284.894531 226.035156 284.882812 226.238281 284.6875 C 227.457031 283.503906 228.460938 282.171875 229.117188 280.597656 C 229.25 280.277344 229.480469 280.046875 229.800781 279.894531 C 230.125 279.746094 230.441406 279.585938 230.753906 279.421875 C 231.152344 279.210938 231.539062 278.988281 231.90625 278.71875 Z M 234.332031 279.933594 L 234.339844 279.898438 C 234.058594 279.746094 233.769531 279.601562 233.492188 279.4375 C 233.378906 279.371094 233.332031 279.410156 233.269531 279.496094 C 231.984375 281.207031 230.695312 282.914062 229.40625 284.621094 C 229.363281 284.679688 229.320312 284.734375 229.3125 284.8125 C 229.265625 285.15625 229.175781 285.492188 229.089844 285.828125 C 228.980469 286.234375 228.871094 286.636719 228.785156 287.046875 C 228.730469 287.328125 228.832031 287.441406 229.113281 287.484375 C 229.3125 287.519531 229.503906 287.472656 229.6875 287.410156 C 230.585938 287.101562 231.132812 286.488281 231.371094 285.574219 C 231.582031 284.765625 231.652344 283.933594 231.816406 283.121094 C 231.960938 282.414062 232.054688 281.699219 232.335938 281.027344 C 232.558594 280.492188 232.878906 280.054688 233.515625 279.980469 C 233.789062 279.953125 234.0625 279.949219 234.332031 279.929688 Z M 230.941406 270.132812 C 230.832031 270.160156 230.769531 270.175781 230.707031 270.191406 C 230.082031 270.367188 229.65625 270.792969 229.285156 271.292969 C 228.828125 271.902344 228.4375 272.558594 228.035156 273.203125 C 227.511719 274.035156 227.042969 274.898438 226.371094 275.628906 C 226.148438 275.867188 225.902344 276.089844 225.714844 276.363281 C 225.546875 276.605469 225.542969 276.84375 225.695312 277.09375 C 225.878906 277.398438 226.144531 277.554688 226.511719 277.542969 C 226.6875 277.539062 226.855469 277.492188 227.027344 277.460938 C 227.167969 277.4375 227.242188 277.367188 227.308594 277.242188 C 228.242188 275.40625 229.183594 273.570312 230.125 271.738281 C 230.390625 271.214844 230.65625 270.695312 230.941406 270.132812 Z M 222.566406 292.660156 C 222.71875 292.636719 222.789062 292.554688 222.859375 292.476562 C 223.292969 292.011719 223.613281 291.472656 224 290.972656 C 225.28125 289.304688 226.566406 287.636719 227.851562 285.96875 C 229.535156 283.785156 231.230469 281.613281 232.945312 279.453125 C 233.113281 279.246094 233.113281 279.246094 232.863281 279.128906 C 232.765625 279.082031 232.664062 279.042969 232.574219 278.988281 C 232.457031 278.914062 232.394531 278.949219 232.316406 279.058594 C 231.371094 280.378906 230.421875 281.695312 229.464844 283.007812 C 227.230469 286.070312 225.058594 289.171875 222.789062 292.210938 C 222.691406 292.339844 222.601562 292.476562 222.5625 292.660156 Z M 230.566406 274.675781 C 231.269531 274.789062 231.902344 274.972656 232.53125 275.1875 C 233.039062 275.359375 233.542969 275.546875 234.0625 275.6875 C 234.132812 275.703125 234.207031 275.75 234.273438 275.652344 C 234.652344 275.101562 235.039062 274.558594 235.417969 274.007812 C 235.511719 273.871094 235.4375 273.746094 235.28125 273.726562 C 235.023438 273.699219 234.761719 273.664062 234.503906 273.628906 C 233.800781 273.53125 233.101562 273.375 232.386719 273.34375 C 232.15625 273.332031 231.960938 273.378906 231.777344 273.542969 C 231.378906 273.90625 231.03125 274.324219 230.566406 274.675781 Z M 229.988281 281.398438 C 230.40625 280.808594 230.828125 280.222656 231.25 279.636719 C 230.980469 279.722656 230.742188 279.832031 230.5 279.945312 C 230.46875 279.960938 230.441406 280 230.425781 280.03125 C 230.230469 280.46875 230.105469 280.929688 229.988281 281.394531 Z M 229.988281 281.398438 "/></g><path style=" stroke:none;fill-rule:nonzero;fill:#000000;fill-opacity:1;" d="M 251.554688 286.980469 C 250.625 286.859375 249.640625 286.96875 248.660156 287.082031 C 247.683594 287.191406 246.707031 287.3125 245.722656 287.261719 C 244.910156 287.21875 244.125 287.050781 243.386719 286.703125 C 243.15625 286.59375 242.9375 286.460938 242.769531 286.261719 C 242.714844 286.195312 242.636719 286.132812 242.726562 286.023438 C 242.808594 285.925781 242.882812 285.941406 242.972656 285.988281 C 243.246094 286.128906 243.511719 286.292969 243.792969 286.410156 C 244.691406 286.789062 245.636719 286.871094 246.597656 286.84375 C 247.621094 286.8125 248.632812 286.65625 249.652344 286.566406 C 250.316406 286.507812 250.980469 286.476562 251.644531 286.539062 C 251.878906 286.5625 251.976562 286.625 251.96875 286.78125 C 251.964844 286.953125 251.863281 287.011719 251.554688 286.984375 Z M 251.554688 286.980469 "/></g></svg>